<svg width="1600" height="900" viewBox="0 0 1600 900" fill="none" xmlns="http://www.w3.org/2000/svg">
  <rect width="1600" height="900" fill="#08111F"/>
  <rect x="40" y="40" width="1520" height="820" rx="32" fill="url(#bg)" stroke="#1E293B" stroke-width="2"/>
  <circle cx="240" cy="180" r="120" fill="#0F766E" fill-opacity="0.2"/>
  <circle cx="1320" cy="720" r="170" fill="#1D4ED8" fill-opacity="0.15"/>
  <circle cx="1260" cy="150" r="90" fill="#C2410C" fill-opacity="0.18"/>

  <g opacity="0.55" stroke="#38BDF8" stroke-width="2">
    <line x1="180" y1="250" x2="390" y2="350"/>
    <line x1="390" y1="350" x2="530" y2="250"/>
    <line x1="530" y1="250" x2="710" y2="360"/>
    <line x1="710" y1="360" x2="900" y2="260"/>
    <line x1="900" y1="260" x2="1100" y2="355"/>
    <line x1="1100" y1="355" x2="1320" y2="260"/>
  </g>

  <g fill="#E2E8F0">
    <circle cx="180" cy="250" r="8"/>
    <circle cx="390" cy="350" r="8"/>
    <circle cx="530" cy="250" r="8"/>
    <circle cx="710" cy="360" r="8"/>
    <circle cx="900" cy="260" r="8"/>
    <circle cx="1100" cy="355" r="8"/>
    <circle cx="1320" cy="260" r="8"/>
  </g>

  <rect x="120" y="540" width="520" height="200" rx="24" fill="#0F172A" stroke="#334155"/>
  <rect x="680" y="540" width="360" height="200" rx="24" fill="#0F172A" stroke="#334155"/>
  <rect x="1080" y="540" width="400" height="200" rx="24" fill="#0F172A" stroke="#334155"/>

  <g stroke="#22C55E" stroke-width="3">
    <polyline points="160,680 220,650 280,690 340,610 400,625 460,585 520,620 580,600"/>
  </g>
  <g fill="#F8FAFC" font-family="Arial, Helvetica, sans-serif">
    <text x="160" y="590" font-size="28" font-weight="700">A/B/C/D canonical panels</text>
    <text x="160" y="625" font-size="20" fill="#94A3B8">Raster + population rate from Brunel 2000</text>
  </g>

  <g fill="#F8FAFC" font-family="Arial, Helvetica, sans-serif">
    <text x="720" y="590" font-size="28" font-weight="700">Phase diagram</text>
    <text x="720" y="625" font-size="20" fill="#94A3B8">Small sweep over g and external drive</text>
  </g>
  <g>
    <rect x="720" y="650" width="70" height="50" fill="#1D4ED8"/>
    <rect x="790" y="650" width="70" height="50" fill="#2563EB"/>
    <rect x="860" y="650" width="70" height="50" fill="#0EA5E9"/>
    <rect x="930" y="650" width="70" height="50" fill="#14B8A6"/>
  </g>

  <g fill="#F8FAFC" font-family="Arial, Helvetica, sans-serif">
    <text x="1120" y="590" font-size="28" font-weight="700">Acceptance rules</text>
    <text x="1120" y="625" font-size="20" fill="#94A3B8">Behavior-first validation, not fake precision</text>
    <text x="1120" y="675" font-size="22" fill="#22C55E">PASS   sync peak power &gt; async</text>
    <text x="1120" y="710" font-size="22" fill="#EAB308">CHECK  async irregularity threshold</text>
  </g>

  <g fill="#F8FAFC" font-family="Arial, Helvetica, sans-serif">
    <text x="120" y="170" font-size="76" font-weight="700">Brunel Balance Network</text>
    <text x="120" y="235" font-size="34" fill="#CBD5E1">Computational neuroscience microproject with Brian2</text>
    <text x="120" y="290" font-size="30" fill="#F97316">Built with codex GPR-5.4 vibe coding</text>
  </g>

  <defs>
    <linearGradient id="bg" x1="120" y1="80" x2="1480" y2="820" gradientUnits="userSpaceOnUse">
      <stop stop-color="#0B1B32"/>
      <stop offset="1" stop-color="#111827"/>
    </linearGradient>
  </defs>
</svg>
